<svg width="19" height="15" viewBox="0 0 19 15" fill="none" xmlns="http://www.w3.org/2000/svg">
<path d="M5.53301 1.09821L5.14707 2.14286H2.375C1.06504 2.14286 0 3.10379 0 4.28571V12.8571C0 14.0391 1.06504 15 2.375 15H16.625C17.935 15 19 14.0391 19 12.8571V4.28571C19 3.10379 17.935 2.14286 16.625 2.14286H13.8529L13.467 1.09821C13.2258 0.441964 12.5467 0 11.7785 0H7.22148C6.45332 0 5.77422 0.441964 5.53301 1.09821ZM9.5 5.35714C11.4668 5.35714 13.0625 6.79688 13.0625 8.57143C13.0625 10.346 11.4668 11.7857 9.5 11.7857C7.5332 11.7857 5.9375 10.346 5.9375 8.57143C5.9375 6.79688 7.5332 5.35714 9.5 5.35714Z" fill="black"/>
</svg>
