<svg width="21" height="20" viewBox="0 0 21 20" fill="none" xmlns="http://www.w3.org/2000/svg">
<path d="M4.79999 0.900024C3.72343 0.900024 2.84999 1.77346 2.84999 2.85002C2.84999 3.10596 2.90281 3.34565 2.98812 3.56909C2.15937 3.79252 1.55 4.54815 1.55 5.45002C1.55 5.81971 1.65562 6.16502 1.83437 6.46159C0.932495 6.63221 0.249994 7.4244 0.249994 8.37502C0.249994 9.17534 0.733434 9.8619 1.42406 10.1625C0.733434 10.4631 0.249994 11.1497 0.249994 11.95C0.249994 13.0266 1.12343 13.9 2.2 13.9H8.69999L7.55437 16.76C7.45281 17.016 7.39999 17.2922 7.39999 17.5685V17.7391C7.39999 18.8481 8.29781 19.746 9.40687 19.746C10.1666 19.746 10.8612 19.3153 11.2025 18.6369L13.4897 14.0747C13.7619 13.5344 13.9 12.9372 13.9 12.3319V4.75127C13.9 3.96315 13.5384 3.21565 12.925 2.72002L12.4294 2.32596C11.2756 1.40377 9.84562 0.900024 8.37093 0.900024H4.79999ZM17.15 3.50002C16.4309 3.50002 15.85 4.08096 15.85 4.80002V15.2C15.85 15.9191 16.4309 16.5 17.15 16.5H19.1C19.8191 16.5 20.4 15.9191 20.4 15.2V4.80002C20.4 4.08096 19.8191 3.50002 19.1 3.50002H17.15Z" fill="#E41501"/>
</svg>
