<svg width="18" height="17" viewBox="0 0 18 17" fill="none" xmlns="http://www.w3.org/2000/svg">
<path d="M6.5 7.5C8.57187 7.5 10.25 5.82188 10.25 3.75C10.25 1.67812 8.57187 0 6.5 0C4.42812 0 2.75 1.67812 2.75 3.75C2.75 5.82188 4.42812 7.5 6.5 7.5ZM5.57187 9.25C2.49375 9.25 0 11.7437 0 14.8219C0 15.3344 0.415625 15.75 0.928125 15.75H7.06875L7.40938 14.0469C7.54375 13.3687 7.87812 12.7469 8.36562 12.2594L10.4688 10.1562C9.59375 9.58438 8.55 9.25313 7.425 9.25313H5.56875L5.57187 9.25ZM8.88125 14.3406L8.50937 16.2031C8.50312 16.2313 8.5 16.2625 8.5 16.2938C8.5 16.5438 8.70312 16.75 8.95625 16.75C8.9875 16.75 9.01562 16.7469 9.04688 16.7406L10.9094 16.3687C11.2969 16.2906 11.6531 16.1 11.9312 15.8219L15.6469 12.1062L13.1469 9.60625L9.43125 13.3219C9.15312 13.6 8.9625 13.9563 8.88437 14.3438L8.88125 14.3406ZM17.25 10.4969C17.9406 9.80625 17.9406 8.6875 17.25 7.99687C16.5594 7.30625 15.4406 7.30625 14.75 7.99687L13.85 8.89688L16.35 11.3969L17.25 10.4969Z" fill="black"/>
</svg>
