<svg width="25" height="25" viewBox="0 0 25 25" fill="none" xmlns="http://www.w3.org/2000/svg">
<path d="M17.0719 1.02565L14.8997 3.19789L21.5712 9.86945L23.7435 7.6972C24.4014 7.04407 24.7691 6.15389 24.7691 5.225C24.7691 4.29611 24.4014 3.40593 23.7435 2.7528L22.0163 1.02565C21.3632 0.367685 20.473 0 19.5441 0C18.6152 0 17.725 0.367685 17.0719 1.02565ZM13.2596 4.83796L2.84829 15.2444C2.33063 15.7621 1.95327 16.4104 1.75491 17.1167L0.0422723 23.2996C-0.0690008 23.7012 0.0422722 24.1366 0.342226 24.4317C0.64218 24.7268 1.07276 24.8429 1.47431 24.7317L7.65723 23.0142C8.36357 22.8158 9.00702 22.4433 9.52952 21.9208L19.9311 11.5095L13.2596 4.83796Z" fill="#E62E1B"/>
</svg>
