<svg width="19" height="15" viewBox="0 0 19 15" fill="none" xmlns="http://www.w3.org/2000/svg">
<path d="M7.00311 7.5C9.07499 7.5 10.7531 5.82188 10.7531 3.75C10.7531 1.67812 9.07499 0 7.00311 0C4.93124 0 3.25311 1.67812 3.25311 3.75C3.25311 5.82188 4.93124 7.5 7.00311 7.5ZM6.07499 9.25C2.99686 9.25 0.503113 11.7437 0.503113 14.8219C0.503113 15.3344 0.918738 15.75 1.43124 15.75H7.57186L7.91249 14.0469C8.04686 13.3687 8.38124 12.7469 8.86874 12.2594L10.9719 10.1562C10.0969 9.58438 9.05311 9.25313 7.92811 9.25313H6.07186L6.07499 9.25ZM9.38436 14.3406L9.01249 16.2031C9.00624 16.2313 9.00311 16.2625 9.00311 16.2938C9.00311 16.5438 9.20624 16.75 9.45936 16.75C9.49061 16.75 9.51874 16.7469 9.54999 16.7406L11.4125 16.3687C11.8 16.2906 12.1562 16.1 12.4344 15.8219L16.15 12.1062L13.65 9.60625L9.93436 13.3219C9.65624 13.6 9.46561 13.9563 9.38749 14.3438L9.38436 14.3406ZM17.7531 10.4969C18.4437 9.80625 18.4437 8.6875 17.7531 7.99687C17.0625 7.30625 15.9437 7.30625 15.2531 7.99687L14.3531 8.89688L16.8531 11.3969L17.7531 10.4969Z" fill="black"/>
</svg>
