<svg width="19" height="16" viewBox="0 0 19 16" fill="none" xmlns="http://www.w3.org/2000/svg">
<path d="M3.26251 3.75C3.26251 1.67812 4.94064 0 7.01251 0C9.08439 0 10.7625 1.67812 10.7625 3.75C10.7625 5.82188 9.08439 7.5 7.01251 7.5C4.94064 7.5 3.26251 5.82188 3.26251 3.75ZM0.512512 14.8219C0.512512 11.7437 3.00626 9.25 6.08439 9.25H7.94064C11.0188 9.25 13.5125 11.7437 13.5125 14.8219C13.5125 15.3344 13.0969 15.75 12.5844 15.75H1.44064C0.928137 15.75 0.512512 15.3344 0.512512 14.8219ZM18.1344 3.62813C18.4281 3.92188 18.4281 4.39687 18.1344 4.6875L17.075 5.74687L18.1344 6.80625C18.4281 7.1 18.4281 7.575 18.1344 7.86563C17.8406 8.15625 17.3656 8.15938 17.075 7.86563L16.0156 6.80625L14.9563 7.86563C14.6625 8.15938 14.1875 8.15938 13.8969 7.86563C13.6063 7.57188 13.6031 7.09687 13.8969 6.80625L14.9563 5.74687L13.8969 4.6875C13.6031 4.39375 13.6031 3.91875 13.8969 3.62813C14.1906 3.3375 14.6656 3.33438 14.9563 3.62813L16.0156 4.6875L17.075 3.62813C17.3688 3.33438 17.8438 3.33438 18.1344 3.62813Z" fill="black"/>
</svg>
