<svg width="18" height="16" viewBox="0 0 18 16" fill="none" xmlns="http://www.w3.org/2000/svg">
<path d="M2.75 3.75C2.75 1.67812 4.42813 0 6.5 0C8.57188 0 10.25 1.67812 10.25 3.75C10.25 5.82188 8.57188 7.5 6.5 7.5C4.42813 7.5 2.75 5.82188 2.75 3.75ZM0 14.8219C0 11.7437 2.49375 9.25 5.57188 9.25H7.42813C10.5063 9.25 13 11.7437 13 14.8219C13 15.3344 12.5844 15.75 12.0719 15.75H0.928125C0.415625 15.75 0 15.3344 0 14.8219ZM17.6219 3.62813C17.9156 3.92188 17.9156 4.39687 17.6219 4.6875L16.5625 5.74687L17.6219 6.80625C17.9156 7.1 17.9156 7.575 17.6219 7.86563C17.3281 8.15625 16.8531 8.15938 16.5625 7.86563L15.5031 6.80625L14.4438 7.86563C14.15 8.15938 13.675 8.15938 13.3844 7.86563C13.0938 7.57188 13.0906 7.09687 13.3844 6.80625L14.4438 5.74687L13.3844 4.6875C13.0906 4.39375 13.0906 3.91875 13.3844 3.62813C13.6781 3.3375 14.1531 3.33438 14.4438 3.62813L15.5031 4.6875L16.5625 3.62813C16.8563 3.33438 17.3313 3.33438 17.6219 3.62813Z" fill="black"/>
</svg>
