<svg width="16" height="16" viewBox="0 0 16 16" fill="none" xmlns="http://www.w3.org/2000/svg">
<path d="M14.828 8.08803C15.104 7.77256 15.104 7.26245 14.828 6.95034L10.5998 2.1143C10.3972 1.88273 10.0948 1.81561 9.83052 1.93978C9.56626 2.06396 9.39596 2.35929 9.39596 2.68482V5.36965H6.10738C5.32927 5.36965 4.69798 6.09119 4.69798 6.98054V8.05447C4.69798 8.94382 5.32927 9.66536 6.10738 9.66536H9.39596V12.3502C9.39596 12.6757 9.56626 12.9711 9.83052 13.0952C10.0948 13.2194 10.3972 13.1523 10.5998 12.9207L14.828 8.08803ZM4.69798 2.14786C5.2177 2.14786 5.63758 1.66795 5.63758 1.07393C5.63758 0.479912 5.2177 0 4.69798 0H2.81879C1.26258 0 0 1.44309 0 3.22179V11.8132C0 13.5919 1.26258 15.035 2.81879 15.035H4.69798C5.2177 15.035 5.63758 14.5551 5.63758 13.9611C5.63758 13.3671 5.2177 12.8871 4.69798 12.8871H2.81879C2.29907 12.8871 1.87919 12.4072 1.87919 11.8132V3.22179C1.87919 2.62777 2.29907 2.14786 2.81879 2.14786H4.69798Z" fill="#E62E1B"/>
</svg>
