<svg width="16" height="16" viewBox="0 0 16 16" fill="none" xmlns="http://www.w3.org/2000/svg">
<path d="M14.828 8.13478C15.104 7.81931 15.104 7.3092 14.828 6.99709L10.5998 2.16105C10.3972 1.92948 10.0948 1.86236 9.83052 1.98654C9.56626 2.11071 9.39596 2.40604 9.39596 2.73158V5.4164H6.10738C5.32927 5.4164 4.69798 6.13794 4.69798 7.02729V8.10122C4.69798 8.99057 5.32927 9.71211 6.10738 9.71211H9.39596V12.3969C9.39596 12.7225 9.56626 13.0178 9.83052 13.142C10.0948 13.2661 10.3972 13.199 10.5998 12.9675L14.828 8.13478ZM4.69798 2.19461C5.2177 2.19461 5.63758 1.7147 5.63758 1.12068C5.63758 0.526665 5.2177 0.0467529 4.69798 0.0467529H2.81879C1.26258 0.0467529 0 1.48985 0 3.26854V11.86C0 13.6387 1.26258 15.0818 2.81879 15.0818H4.69798C5.2177 15.0818 5.63758 14.6018 5.63758 14.0078C5.63758 13.4138 5.2177 12.9339 4.69798 12.9339H2.81879C2.29907 12.9339 1.87919 12.454 1.87919 11.86V3.26854C1.87919 2.67452 2.29907 2.19461 2.81879 2.19461H4.69798Z" fill="#E62E1B"/>
</svg>
