<svg width="17" height="20" viewBox="0 0 17 20" fill="none" xmlns="http://www.w3.org/2000/svg">
<path d="M1.8 0.9C1.8 0.40125 1.39875 0 0.9 0C0.40125 0 0 0.40125 0 0.9V18.3C0 18.7988 0.40125 19.2 0.9 19.2C1.39875 19.2 1.8 18.7988 1.8 18.3V14.55L4.81125 13.7963C6.3525 13.41 7.98375 13.59 9.405 14.2987C11.0625 15.1275 12.9862 15.2288 14.7187 14.5763L16.02 14.0888C16.4887 13.9125 16.8 13.4663 16.8 12.9638V2.475C16.8 1.6125 15.8925 1.05 15.12 1.43625L14.76 1.61625C13.0237 2.48625 10.98 2.48625 9.24375 1.61625C7.9275 0.95625 6.41625 0.79125 4.9875 1.1475L1.8 1.95V0.9ZM1.8 3.80625L5.4225 2.89875C6.435 2.6475 7.50375 2.76375 8.4375 3.22875C10.4962 4.25625 12.8887 4.3425 15 3.48375V12.5513L14.085 12.8925C12.8212 13.365 11.415 13.2938 10.2075 12.69C8.4 11.7863 6.33375 11.5612 4.3725 12.0487L1.8 12.6938V3.80625Z" fill="#E41501"/>
</svg>
