<svg width="21" height="21" viewBox="0 0 21 21" fill="none" xmlns="http://www.w3.org/2000/svg">
<path d="M5.47091 0.900024L5.17029 0.916274C3.74841 1.06252 2.63123 2.2244 2.55404 3.66659C1.83091 4.14596 1.33123 4.94221 1.25404 5.85627L1.24591 6.10002C1.24591 6.33159 1.27435 6.55502 1.32716 6.77034C0.912788 7.23752 0.644665 7.83878 0.604038 8.50503L0.595913 8.70002C0.595913 9.23627 0.742163 9.7319 0.994038 10.1625C0.794975 10.5038 0.660913 10.8897 0.616226 11.3L0.599976 11.625C0.599976 13.1403 1.74966 14.3835 3.22435 14.5338L3.52498 14.55H7.98154L7.40873 15.7688L7.28279 16.0775C6.77498 17.5278 7.35591 19.1447 8.67216 19.9369L8.96466 20.0953C10.4881 20.8103 12.2837 20.2416 13.1328 18.8278L13.1572 18.7913L13.2669 18.5882L13.2912 18.5394L14.514 15.9394C14.8959 16.6625 15.6515 17.1541 16.525 17.1541H17.825C19.0803 17.1541 20.1 16.1344 20.1 14.8791L20.0959 5.77502C20.0959 4.51971 19.0762 3.50002 17.8209 3.50002H16.5209C16.0172 3.50002 15.55 3.66659 15.1722 3.9469C14.6359 3.07752 13.8722 2.34627 12.9378 1.85065L12.4422 1.58659L12.4137 1.5744L12.1456 1.4444L12.1172 1.43221L11.8287 1.31034C11.1503 1.04221 10.4272 0.908149 9.69185 0.908149L5.47091 0.900024ZM9.69998 2.85002C10.1875 2.85002 10.6709 2.94346 11.1259 3.11815L11.3169 3.1994L11.5322 3.30502L12.0278 3.56909C13.214 4.19877 13.99 5.39315 14.0875 6.72159L14.0956 7.04659V11.6332L14.0915 11.7997C14.0712 12.1328 13.99 12.4578 13.8478 12.7625L11.5403 17.6741L11.455 17.8285C11.1137 18.385 10.3987 18.6044 9.79748 18.3241L9.67966 18.2591C9.15154 17.9422 8.91998 17.2963 9.1231 16.7153L9.17185 16.5935L10.3987 13.9853C10.5409 13.6847 10.5165 13.3313 10.3378 13.0469C10.159 12.7625 9.85029 12.596 9.51716 12.596H3.52498L3.42748 12.5919C2.96841 12.5472 2.60279 12.1816 2.5581 11.7225L2.55404 11.621C2.55404 11.3325 2.67998 11.0725 2.88716 10.8897C3.09841 10.7028 3.22029 10.4388 3.22029 10.1585C3.22029 9.87815 3.09841 9.61409 2.88716 9.42721C2.70841 9.26877 2.58654 9.0494 2.56216 8.80565L2.55404 8.69596C2.55404 8.35471 2.73279 8.05003 3.00904 7.87534C3.44373 7.59503 3.58591 7.02627 3.33404 6.57534C3.2731 6.46971 3.23248 6.34784 3.21623 6.22596L3.2081 6.09596C3.2081 5.66534 3.48841 5.29971 3.88247 5.16971C4.35779 5.01534 4.64216 4.52377 4.53248 4.03221C4.52435 3.99565 4.52029 3.95909 4.51623 3.92659L4.5081 3.82096C4.5081 3.31721 4.89404 2.90284 5.3856 2.85409L5.47091 2.85002H9.69998ZM17.8209 5.45002C17.9997 5.45002 18.1459 5.59627 18.1459 5.77502V14.875C18.1459 15.0538 17.9997 15.2 17.8209 15.2H16.5209C16.3422 15.2 16.1959 15.0538 16.1959 14.875V5.77502C16.1959 5.59627 16.3422 5.45002 16.5209 5.45002H17.8209Z" fill="black"/>
</svg>
