<svg width="21" height="21" viewBox="0 0 21 21" fill="none" xmlns="http://www.w3.org/2000/svg">
<path d="M7.5672 2.17625C8.4122 0.762499 10.2078 0.193749 11.7313 0.908749L12.0238 1.06312C13.4375 1.91219 14.0063 3.70781 13.2913 5.23125L12.7185 6.45H17.175L17.4756 6.46625C18.9503 6.61656 20.1 7.86375 20.1 9.375C20.1 9.91125 19.9538 10.4069 19.7019 10.8375C19.9497 11.2681 20.096 11.7637 20.1 12.3C20.1 13.0434 19.8197 13.7137 19.3688 14.2297C19.4216 14.445 19.45 14.6684 19.45 14.9C19.45 15.9197 18.926 16.8094 18.1419 17.3334C18.0647 18.7756 16.9475 19.9416 15.5256 20.0837L15.225 20.1H10.996C10.2647 20.1 9.53751 19.9619 8.85908 19.6978L8.57064 19.5759L8.5422 19.5637L8.27408 19.4337L8.24564 19.4216L7.75001 19.1575C7.25033 18.8934 6.80345 18.5603 6.41345 18.1784C6.24689 19.2712 5.30439 20.1041 4.16689 20.1041H2.86689C1.61158 20.1041 0.591888 19.0844 0.591888 17.8291L0.600013 8.725C0.600013 7.46969 1.6197 6.45 2.87501 6.45H4.17501C4.61376 6.45 5.02408 6.57594 5.37345 6.79531L7.40876 2.46875L7.43314 2.42L7.54283 2.21687L7.5672 2.18031V2.17625ZM2.87501 8.4C2.69626 8.4 2.55001 8.54625 2.55001 8.725V17.825C2.55001 18.0037 2.69626 18.15 2.87501 18.15H4.17501C4.35376 18.15 4.50001 18.0037 4.50001 17.825V8.725C4.50001 8.54625 4.35376 8.4 4.17501 8.4H2.87501ZM10.9025 2.67187C10.3013 2.39156 9.59033 2.60687 9.24908 3.15937L9.1597 3.32187L6.8522 8.23344C6.71001 8.53812 6.62876 8.86312 6.60845 9.19625L6.60439 9.36687V13.9534L6.61251 14.2744C6.71001 15.6028 7.48189 16.7972 8.6722 17.4309L9.13939 17.6787L9.39533 17.8047C9.89908 18.0322 10.4435 18.15 10.996 18.15H15.225L15.3225 18.1459C15.8141 18.0972 16.2 17.6787 16.2 17.175L16.1919 17.0694C16.1878 17.0328 16.1838 17.0003 16.1756 16.9637C16.066 16.4722 16.3503 15.9806 16.8256 15.8262C17.2197 15.7003 17.5 15.3306 17.5 14.9C17.5 14.7253 17.4553 14.5669 17.3741 14.4206C17.1181 13.9697 17.2603 13.3969 17.6991 13.1206C17.9753 12.9459 18.1541 12.6412 18.1541 12.3C18.1541 12.0116 18.0281 11.7516 17.821 11.5687C17.6097 11.3819 17.4878 11.1178 17.4878 10.8375C17.4878 10.5572 17.6097 10.2931 17.821 10.1062C18.0281 9.92344 18.1541 9.66344 18.1541 9.375L18.15 9.2775C18.1053 8.81844 17.7397 8.45281 17.2806 8.40812L17.1831 8.40406H11.191C10.8578 8.40406 10.5491 8.23344 10.3703 7.95312C10.1916 7.67281 10.1672 7.31531 10.3094 7.01469L11.5281 4.4025C11.8125 3.79312 11.585 3.07406 11.0203 2.73687L10.9025 2.67187Z" fill="black"/>
</svg>
