<svg width="21" height="20" viewBox="0 0 21 20" fill="none" xmlns="http://www.w3.org/2000/svg">
<path d="M3.85 6.1C4.56906 6.1 5.15 6.68094 5.15 7.4V17.8C5.15 18.5191 4.56906 19.1 3.85 19.1H1.9C1.18094 19.1 0.599998 18.5191 0.599998 17.8V7.4C0.599998 6.68094 1.18094 6.1 1.9 6.1H3.85ZM11.5931 0.25C12.7022 0.25 13.6 1.14781 13.6 2.25687V2.4275C13.6 2.70375 13.5472 2.98 13.4456 3.23594L12.3 6.1H18.8C19.8766 6.1 20.75 6.97344 20.75 8.05C20.75 8.85031 20.2666 9.53688 19.5759 9.8375C20.2666 10.1381 20.75 10.8247 20.75 11.625C20.75 12.5756 20.0675 13.3678 19.1656 13.5384C19.3444 13.835 19.45 14.1803 19.45 14.55C19.45 15.4519 18.8406 16.2075 18.0119 16.4309C18.1012 16.6544 18.15 16.8981 18.15 17.15C18.15 18.2266 17.2766 19.1 16.2 19.1H12.6291C11.1544 19.1 9.72031 18.5963 8.57062 17.6741L8.075 17.28C7.4575 16.7884 7.1 16.0409 7.1 15.2488V7.66813C7.1 7.06281 7.24219 6.46563 7.51031 5.92531L9.79344 1.35906C10.1347 0.680625 10.8294 0.25 11.5931 0.25Z" fill="#E41501"/>
</svg>
