<svg width="21" height="19" viewBox="0 0 21 19" fill="none" xmlns="http://www.w3.org/2000/svg">
<path d="M3.25 5.85C3.96906 5.85 4.55 6.43094 4.55 7.15V17.55C4.55 18.2691 3.96906 18.85 3.25 18.85H1.3C0.580937 18.85 0 18.2691 0 17.55V7.15C0 6.43094 0.580937 5.85 1.3 5.85H3.25ZM10.9931 0C12.1022 0 13 0.897812 13 2.00687V2.1775C13 2.45375 12.9472 2.73 12.8456 2.98594L11.7 5.85H18.2C19.2766 5.85 20.15 6.72344 20.15 7.8C20.15 8.60031 19.6666 9.28688 18.9759 9.5875C19.6666 9.88813 20.15 10.5747 20.15 11.375C20.15 12.3256 19.4675 13.1178 18.5656 13.2884C18.7444 13.585 18.85 13.9303 18.85 14.3C18.85 15.2019 18.2406 15.9575 17.4119 16.1809C17.5012 16.4044 17.55 16.6481 17.55 16.9C17.55 17.9766 16.6766 18.85 15.6 18.85H12.0291C10.5544 18.85 9.12031 18.3463 7.97063 17.4241L7.475 17.03C6.8575 16.5384 6.5 15.7909 6.5 14.9988V7.41813C6.5 6.81281 6.64219 6.21562 6.91031 5.67531L9.19344 1.10906C9.53469 0.430625 10.2294 0 10.9931 0Z" fill="#E41501"/>
</svg>
