<svg width="15" height="21" viewBox="0 0 15 21" fill="none" xmlns="http://www.w3.org/2000/svg">
<path d="M7.5 0C5.42969 0 3.75 1.69002 3.75 3.77306V8.8038C3.75 10.8868 5.42969 12.5769 7.5 12.5769C9.57031 12.5769 11.25 10.8868 11.25 8.8038V3.77306C11.25 1.69002 9.57031 0 7.5 0ZM1.875 7.23169C1.875 6.70897 1.45703 6.28843 0.9375 6.28843C0.417969 6.28843 0 6.70897 0 7.23169V8.8038C0 12.6515 2.86328 15.8272 6.5625 16.291V18.2364H4.6875C4.16797 18.2364 3.75 18.657 3.75 19.1797C3.75 19.7024 4.16797 20.123 4.6875 20.123H10.3125C10.832 20.123 11.25 19.7024 11.25 19.1797C11.25 18.657 10.832 18.2364 10.3125 18.2364H8.4375V16.291C12.1367 15.8272 15 12.6515 15 8.8038V7.23169C15 6.70897 14.582 6.28843 14.0625 6.28843C13.543 6.28843 13.125 6.70897 13.125 7.23169V8.8038C13.125 11.9284 10.6055 14.4634 7.5 14.4634C4.39453 14.4634 1.875 11.9284 1.875 8.8038V7.23169Z" fill="#E62E1B"/>
</svg>
