<svg width="15" height="21" viewBox="0 0 15 21" fill="none" xmlns="http://www.w3.org/2000/svg">
<path d="M7.5 0C5.42969 0 3.75 1.68865 3.75 3.77001V8.79669C3.75 10.8781 5.42969 12.5667 7.5 12.5667C9.57031 12.5667 11.25 10.8781 11.25 8.79669V3.77001C11.25 1.68865 9.57031 0 7.5 0ZM1.875 7.22586C1.875 6.70355 1.45703 6.28335 0.9375 6.28335C0.417969 6.28335 0 6.70355 0 7.22586V8.79669C0 12.6413 2.86328 15.8144 6.5625 16.2778V18.2217H4.6875C4.16797 18.2217 3.75 18.6419 3.75 19.1642C3.75 19.6865 4.16797 20.1067 4.6875 20.1067H10.3125C10.832 20.1067 11.25 19.6865 11.25 19.1642C11.25 18.6419 10.832 18.2217 10.3125 18.2217H8.4375V16.2778C12.1367 15.8144 15 12.6413 15 8.79669V7.22586C15 6.70355 14.582 6.28335 14.0625 6.28335C13.543 6.28335 13.125 6.70355 13.125 7.22586V8.79669C13.125 11.9187 10.6055 14.4517 7.5 14.4517C4.39453 14.4517 1.875 11.9187 1.875 8.79669V7.22586Z" fill="#E62E1B"/>
</svg>
