<svg width="15" height="16" viewBox="0 0 15 16" fill="none" xmlns="http://www.w3.org/2000/svg">
<path d="M8.5499 3.68642V10.6C8.5499 11.1808 8.08068 11.65 7.4999 11.65C6.91912 11.65 6.4499 11.1808 6.4499 10.6V3.68642L5.09146 5.04485C4.68131 5.45501 4.01521 5.45501 3.60506 5.04485C3.1949 4.6347 3.1949 3.9686 3.60506 3.55845L6.75506 0.408447C7.16521 -0.00170898 7.83131 -0.00170898 8.24146 0.408447L11.3915 3.55845C11.8016 3.9686 11.8016 4.6347 11.3915 5.04485C10.9813 5.45501 10.3152 5.45501 9.90506 5.04485L8.5499 3.68642ZM7.4999 13.225C8.95021 13.225 10.1249 12.0503 10.1249 10.6H12.7499C13.9082 10.6 14.8499 11.5417 14.8499 12.7V13.75C14.8499 14.9083 13.9082 15.85 12.7499 15.85H2.2499C1.09162 15.85 0.149902 14.9083 0.149902 13.75V12.7C0.149902 11.5417 1.09162 10.6 2.2499 10.6H4.8749C4.8749 12.0503 6.04959 13.225 7.4999 13.225ZM12.2249 14.0125C12.6613 14.0125 13.0124 13.6614 13.0124 13.225C13.0124 12.7886 12.6613 12.4375 12.2249 12.4375C11.7885 12.4375 11.4374 12.7886 11.4374 13.225C11.4374 13.6614 11.7885 14.0125 12.2249 14.0125Z" fill="white"/>
</svg>
