<svg width="19" height="21" viewBox="0 0 19 21" fill="none" xmlns="http://www.w3.org/2000/svg">
<path d="M10.8571 4.78103V13.9996C10.8571 14.7741 10.2507 15.3997 9.5 15.3997C8.74933 15.3997 8.14286 14.7741 8.14286 13.9996V4.78103L6.38705 6.59237C5.85692 7.13928 4.99598 7.13928 4.46585 6.59237C3.93571 6.04547 3.93571 5.1573 4.46585 4.6104L8.53728 0.410178C9.06741 -0.136726 9.92835 -0.136726 10.4585 0.410178L14.5299 4.6104C15.06 5.1573 15.06 6.04547 14.5299 6.59237C13.9998 7.13928 13.1388 7.13928 12.6087 6.59237L10.8571 4.78103ZM9.5 17.4998C11.3746 17.4998 12.8929 15.9335 12.8929 13.9996H16.2857C17.7828 13.9996 19 15.2553 19 16.7998V18.1999C19 19.7443 17.7828 21 16.2857 21H2.71429C1.21719 21 0 19.7443 0 18.1999V16.7998C0 15.2553 1.21719 13.9996 2.71429 13.9996H6.10714C6.10714 15.9335 7.62545 17.4998 9.5 17.4998ZM15.6071 18.5499C16.1712 18.5499 16.625 18.0817 16.625 17.4998C16.625 16.9179 16.1712 16.4498 15.6071 16.4498C15.0431 16.4498 14.5893 16.9179 14.5893 17.4998C14.5893 18.0817 15.0431 18.5499 15.6071 18.5499Z" fill="white"/>
</svg>
