<svg width="19" height="17" viewBox="0 0 19 17" fill="none" xmlns="http://www.w3.org/2000/svg">
<path d="M0 1.3575C0 0.606634 0.606473 0 1.35714 0H17.6429C18.3935 0 19 0.606634 19 1.3575C19 2.10837 18.3935 2.715 17.6429 2.715H1.35714C0.606473 2.715 0 2.10837 0 1.3575ZM0 8.14501C0 7.39414 0.606473 6.78751 1.35714 6.78751H17.6429C18.3935 6.78751 19 7.39414 19 8.14501C19 8.89588 18.3935 9.50251 17.6429 9.50251H1.35714C0.606473 9.50251 0 8.89588 0 8.14501ZM19 14.9325C19 15.6834 18.3935 16.29 17.6429 16.29H1.35714C0.606473 16.29 0 15.6834 0 14.9325C0 14.1817 0.606473 13.575 1.35714 13.575H17.6429C18.3935 13.575 19 14.1817 19 14.9325Z" fill="#E62E1B"/>
</svg>

