<svg width="21" height="19" viewBox="0 0 21 19" fill="none" xmlns="http://www.w3.org/2000/svg">
<path d="M4.54999 0C3.47343 0 2.59999 0.873438 2.59999 1.95C2.59999 2.20594 2.65281 2.44562 2.73812 2.66906C1.90937 2.8925 1.3 3.64812 1.3 4.55C1.3 4.91969 1.40562 5.265 1.58437 5.56156C0.682495 5.73219 -5.72205e-06 6.52437 -5.72205e-06 7.475C-5.72205e-06 8.27531 0.483435 8.96187 1.17406 9.2625C0.483435 9.56312 -5.72205e-06 10.2497 -5.72205e-06 11.05C-5.72205e-06 12.1266 0.873432 13 1.95 13H8.44999L7.30437 15.86C7.20281 16.1159 7.14999 16.3922 7.14999 16.6684V16.8391C7.14999 17.9481 8.04781 18.8459 9.15687 18.8459C9.91656 18.8459 10.6112 18.4153 10.9525 17.7369L13.2397 13.1747C13.5119 12.6344 13.65 12.0372 13.65 11.4319V3.85125C13.65 3.06312 13.2884 2.31562 12.675 1.82L12.1794 1.42594C11.0256 0.50375 9.59562 0 8.12093 0H4.54999ZM16.9 2.6C16.1809 2.6 15.6 3.18094 15.6 3.9V14.3C15.6 15.0191 16.1809 15.6 16.9 15.6H18.85C19.5691 15.6 20.15 15.0191 20.15 14.3V3.9C20.15 3.18094 19.5691 2.6 18.85 2.6H16.9Z" fill="#E41501"/>
</svg>
