<svg width="16" height="16" viewBox="0 0 16 16" fill="none" xmlns="http://www.w3.org/2000/svg">
<path d="M10.4759 0.629375L9.14297 1.96234L13.2369 6.05625L14.5698 4.72328C14.9736 4.3225 15.1992 3.77625 15.1992 3.20625C15.1992 2.63625 14.9736 2.09 14.5698 1.68922L13.51 0.629375C13.1092 0.225625 12.563 0 11.993 0C11.423 0 10.8767 0.225625 10.4759 0.629375ZM8.13657 2.96875L1.74781 9.35453C1.43016 9.67219 1.1986 10.07 1.07688 10.5034L0.0259398 14.2975C-0.0423414 14.5439 0.0259397 14.8111 0.210002 14.9922C0.394065 15.1733 0.658284 15.2445 0.90469 15.1763L4.69875 14.1223C5.13219 14.0006 5.52703 13.772 5.84766 13.4514L12.2305 7.06266L8.13657 2.96875Z" fill="#E62E1B"/>
</svg>
