<svg width="22" height="22" viewBox="0 0 22 22" fill="none" xmlns="http://www.w3.org/2000/svg">
<path d="M5.49999 3.29995C5.49999 2.69151 5.00843 2.19995 4.39999 2.19995C3.79155 2.19995 3.29999 2.69151 3.29999 3.29995V18.7C3.29999 19.3084 3.79155 19.8 4.39999 19.8C5.00843 19.8 5.49999 19.3084 5.49999 18.7V14.52L7.6553 13.8737C9.09561 13.4406 10.6494 13.5746 11.9934 14.2484C13.4612 14.984 15.1731 15.0734 16.7097 14.4959L17.985 14.0181C18.4147 13.8565 18.7 13.4475 18.7 12.9868V4.47214C18.7 3.68151 17.8681 3.16589 17.16 3.51995L16.7544 3.72276C15.2109 4.4962 13.3925 4.4962 11.8456 3.72276C10.5944 3.09714 9.15405 2.97339 7.81686 3.37558L5.49999 4.06995V3.29995Z" fill="#E41501"/>
</svg>
